ply
format ascii 1.0
comment VCGLIB generated
element vertex 12
property float x
property float y
property float z
property float u
property float v
element face 12
property list uchar int vertex_indices
end_header
-1.0 	 0.0	-1.0	1.0	1.0
 1.0	 0.0 	-1.0	0.0	1.0
-1.0 	 0.0 	 1.0	1.0	0.0
 1.0     0.0     1.0	0.0	0.0
0.5 	-0.866025	-1 	1.0	1.0
-0.5 	0.866025	-1	0.0	1.0
0.5 	-0.866025 	1 	1.0	0.0
-0.5 	0.866025	1 	0.0	0.0
0.5 	0.866026	-1 	1.0	1.0
-0.5 	-0.866026	-1 	0.0	1.0
0.5 	0.866026	1 	1.0	0.0
-0.5 	-0.866026 	1	0.0	0.0
3 2 1 0 
3 2 3 1 
3 0 1 2 
3 1 3 2 
3 6 5 4 
3 6 7 5 
3 4 5 6 
3 5 7 6 
3 10 9 8 
3 10 11 9 
3 8 9 10 
3 9 11 10 
